<?xml version="1.0" standalone="no"?>
<!DOCTYPE svg PUBLIC "-//W3C//DTD SVG 20010904//EN"
 "http://www.w3.org/TR/2001/REC-SVG-20010904/DTD/svg10.dtd">
<svg version="1.0" xmlns="http://www.w3.org/2000/svg"
 width="577.000000pt" height="400.000000pt" viewBox="0 0 577.000000 400.000000"
 preserveAspectRatio="xMidYMid meet">
<metadata>
Created by potrace 1.15, written by Peter Selinger 2001-2017
</metadata>
<g transform="translate(0.000000,400.000000) scale(0.100000,-0.100000)"
fill="#000000" stroke="none">
<path d="M3665 3930 c-49 -10 -101 -19 -113 -19 -26 -1 -251 -87 -266 -102 -6
-5 -22 -9 -36 -9 -26 0 -186 -63 -204 -81 -6 -5 -22 -9 -36 -9 -14 0 -35 -7
-46 -15 -10 -8 -28 -15 -39 -15 -12 0 -37 -8 -56 -18 -19 -10 -62 -24 -95 -31
-32 -7 -71 -19 -86 -27 -14 -8 -35 -14 -45 -14 -11 0 -40 -11 -64 -25 -24 -14
-51 -27 -59 -30 -8 -3 -28 -13 -43 -21 -16 -7 -34 -14 -42 -14 -7 0 -18 -7
-25 -15 -7 -8 -21 -15 -31 -15 -11 0 -19 -4 -19 -10 0 -5 -16 -16 -35 -25 -19
-9 -39 -23 -46 -31 -6 -8 -22 -14 -34 -14 -13 0 -25 -4 -27 -9 -1 -5 -32 -15
-68 -21 -36 -6 -78 -18 -93 -26 -16 -8 -37 -14 -47 -14 -10 0 -31 -6 -47 -14
-117 -56 -141 -67 -168 -73 -16 -3 -50 -17 -74 -30 -24 -12 -47 -23 -52 -23
-4 0 -37 -13 -72 -30 -36 -16 -69 -30 -74 -30 -4 0 -19 -6 -33 -13 -14 -7 -50
-22 -80 -32 -30 -11 -62 -25 -71 -32 -8 -7 -19 -13 -23 -13 -5 0 -25 -13 -45
-29 -20 -16 -58 -39 -85 -52 -77 -38 -86 -43 -86 -51 0 -8 -37 -48 -44 -48 -3
0 -17 -12 -33 -26 -15 -14 -39 -28 -54 -31 -15 -3 -41 -18 -59 -34 -17 -16
-35 -29 -41 -29 -5 0 -9 -7 -9 -15 0 -8 -7 -15 -15 -15 -8 0 -15 -7 -15 -15 0
-8 -7 -15 -15 -15 -8 0 -15 -7 -15 -15 0 -8 -4 -15 -8 -15 -5 0 -35 -25 -67
-55 -33 -30 -62 -55 -66 -55 -4 0 -14 -6 -21 -13 -7 -6 -25 -18 -40 -26 -15
-8 -30 -22 -33 -32 -3 -9 -45 -57 -93 -106 -124 -128 -145 -153 -166 -200 -11
-24 -23 -43 -28 -43 -4 0 -8 -7 -8 -15 0 -8 -4 -15 -10 -15 -5 0 -10 -6 -10
-12 0 -7 -18 -38 -40 -68 -22 -30 -45 -66 -51 -80 -7 -14 -25 -53 -40 -86 -23
-50 -29 -75 -29 -132 0 -39 -4 -73 -9 -77 -5 -3 -13 -31 -16 -63 -4 -31 -13
-78 -22 -105 -17 -56 -15 -336 4 -359 19 -22 43 -132 43 -194 0 -42 6 -68 20
-89 11 -16 20 -37 20 -47 0 -9 3 -18 8 -20 4 -1 16 -21 27 -43 20 -40 49 -75
63 -75 7 -1 74 -86 81 -105 11 -29 68 -104 99 -130 20 -16 49 -42 65 -57 17
-16 38 -28 47 -28 10 0 20 -6 23 -13 3 -8 49 -29 104 -46 54 -18 128 -45 164
-61 36 -15 81 -31 100 -35 19 -4 65 -18 102 -31 38 -13 85 -24 106 -24 20 0
42 -5 48 -11 6 -6 60 -14 119 -18 60 -4 119 -13 131 -19 13 -7 65 -12 126 -12
57 0 150 -7 206 -15 112 -17 284 -15 319 4 11 6 35 11 52 11 17 0 47 7 67 15
19 8 50 15 67 15 18 0 41 7 52 15 10 8 29 15 40 15 27 0 90 26 99 40 3 5 14
10 23 10 9 0 31 7 47 16 17 9 50 27 75 40 25 12 60 34 79 48 19 14 41 26 48
26 7 0 13 4 13 9 0 9 89 101 99 101 16 0 122 113 133 142 8 19 -62 58 -112 64
-17 2 -38 11 -46 19 -9 8 -26 15 -40 15 -17 0 -25 7 -30 27 -13 49 35 82 69
49 9 -9 22 -16 30 -16 9 0 28 -6 44 -14 15 -7 44 -20 63 -29 95 -41 130 -60
130 -68 0 -5 6 -9 13 -9 15 0 111 -48 147 -73 14 -9 30 -17 37 -17 7 0 32 -14
55 -30 22 -17 47 -30 55 -30 7 0 16 -7 19 -15 4 -8 15 -15 25 -15 11 0 36 -11
57 -23 20 -13 55 -32 77 -42 22 -10 46 -23 54 -29 8 -6 37 -16 65 -23 28 -6
80 -19 116 -28 64 -16 236 -45 375 -65 39 -5 86 -14 105 -20 19 -5 96 -10 171
-10 109 0 139 3 149 15 7 8 28 15 47 15 l34 0 -7 50 -7 50 103 -2 c86 -1 105
1 115 15 7 9 21 17 33 17 24 0 46 18 151 120 42 41 101 95 130 120 84 71 161
147 161 159 0 6 4 11 8 11 5 0 21 22 36 50 15 27 35 55 45 62 10 7 22 24 26
38 4 14 10 27 14 30 9 7 41 79 41 91 0 6 6 25 14 42 29 67 44 115 51 162 4 28
16 76 26 107 11 32 24 80 30 108 6 27 14 50 18 50 5 0 11 24 15 53 3 28 15 87
26 130 29 117 48 299 40 397 -6 74 -23 146 -51 215 -5 11 -13 42 -19 69 -23
104 -57 157 -185 289 -53 54 -74 70 -112 87 -13 5 -23 14 -23 20 0 5 -12 10
-27 10 -16 0 -37 7 -47 15 -11 8 -32 15 -47 15 -14 0 -32 6 -38 14 -6 7 -33
16 -59 19 -27 3 -77 15 -112 27 -35 12 -101 26 -148 31 -47 5 -89 12 -94 15
-9 5 -320 26 -403 27 -103 1 -359 -17 -408 -29 -75 -18 -197 -19 -197 -1 0 6
17 26 37 42 58 47 73 64 73 80 0 8 4 15 9 15 5 0 12 12 15 26 4 14 18 43 31
65 14 21 25 45 25 52 0 7 5 18 12 25 12 12 35 69 45 110 4 15 1 22 -9 22 -15
0 -48 -30 -48 -44 0 -4 -12 -19 -27 -34 -32 -32 -93 -108 -93 -116 0 -3 -10
-16 -23 -30 -12 -13 -33 -50 -46 -83 -13 -32 -30 -73 -38 -91 -8 -18 -12 -39
-10 -46 7 -18 -8 -39 -30 -43 -56 -11 -215 -25 -220 -19 -3 3 -1 11 4 18 6 7
14 24 18 38 4 14 39 56 76 93 38 38 69 71 69 74 0 2 10 13 23 24 20 16 20 18
3 19 -32 0 -123 -77 -166 -142 -14 -21 -29 -38 -33 -38 -18 0 -123 -102 -132
-129 -3 -11 -12 -21 -19 -21 -8 0 -19 -7 -26 -15 -7 -8 -27 -15 -45 -15 -18 0
-38 -7 -45 -15 -7 -8 -20 -15 -30 -15 -10 0 -23 -7 -30 -15 -7 -8 -18 -15 -24
-15 -7 0 -23 -11 -36 -25 -13 -14 -29 -25 -36 -25 -10 0 -112 -46 -176 -81
-10 -5 -24 -9 -33 -9 -14 0 -106 -49 -170 -91 -16 -10 -38 -22 -47 -25 -9 -3
-19 -12 -22 -20 -3 -8 -10 -14 -17 -14 -6 0 -23 -11 -37 -24 -80 -72 -99 -87
-119 -92 -13 -4 -23 -10 -23 -15 0 -9 -27 -43 -72 -91 -16 -16 -28 -33 -28
-38 0 -6 -4 -10 -10 -10 -5 0 -10 -5 -10 -10 0 -6 -34 -44 -75 -86 -42 -42
-90 -97 -107 -123 -18 -25 -35 -47 -40 -49 -4 -2 -15 -19 -24 -38 -9 -19 -39
-61 -68 -93 -75 -87 -96 -112 -96 -117 0 -5 -63 -66 -114 -111 -20 -17 -36
-36 -36 -42 0 -6 -4 -11 -9 -11 -11 0 -84 -63 -115 -99 -12 -13 -32 -34 -45
-45 -14 -12 -47 -42 -75 -68 -28 -26 -57 -48 -64 -48 -7 0 -15 -7 -18 -15 -4
-8 -15 -15 -25 -15 -11 0 -43 -20 -73 -44 -29 -23 -79 -60 -110 -80 -31 -21
-56 -42 -56 -47 0 -5 -5 -9 -10 -9 -13 0 -50 -37 -50 -50 0 -5 -7 -10 -15 -10
-8 0 -15 -4 -15 -10 0 -5 -19 -18 -43 -28 -23 -10 -56 -33 -72 -50 -17 -18
-35 -32 -41 -32 -7 0 -14 -7 -18 -15 -3 -8 -12 -15 -21 -15 -8 0 -15 -4 -15
-9 0 -9 -61 -51 -74 -51 -17 0 -3 56 24 95 17 24 30 47 30 52 0 5 13 23 30 41
16 18 30 37 30 41 0 4 8 16 17 27 10 10 29 36 43 56 14 21 30 38 35 38 6 0 24
14 40 31 39 40 65 54 65 36 0 -8 -25 -38 -55 -68 -30 -29 -55 -59 -55 -66 0
-7 -9 -22 -20 -33 -22 -22 -37 -70 -22 -70 5 0 15 7 22 15 7 8 19 15 26 15 17
0 91 74 109 111 8 15 34 42 57 60 24 18 63 53 88 76 25 24 48 43 53 43 4 0 7
5 7 10 0 6 4 16 10 23 5 7 28 36 50 65 22 28 45 52 50 52 6 0 10 5 10 10 0 6
21 30 47 55 25 25 43 48 40 52 -4 3 -15 0 -24 -8 -10 -8 -36 -24 -58 -34 -22
-11 -46 -28 -53 -37 -19 -26 -65 -70 -107 -103 -21 -17 -44 -36 -51 -42 -16
-16 -34 -17 -34 -2 0 12 40 72 52 77 4 2 8 8 8 14 0 6 14 26 31 46 20 22 27
38 20 40 -10 3 -100 -84 -239 -232 -37 -39 -72 -59 -72 -41 0 11 64 131 85
160 12 17 30 53 40 80 10 28 22 55 27 61 4 6 11 33 15 59 8 60 -7 54 -39 -15
-13 -28 -26 -50 -30 -50 -18 0 -210 -208 -233 -254 -6 -11 -27 -42 -47 -68
-20 -26 -43 -66 -51 -90 -16 -46 -55 -195 -64 -240 -5 -25 -9 -28 -47 -28 -23
0 -47 5 -53 11 -6 6 -21 16 -34 23 -60 30 -45 71 23 62 59 -7 73 17 70 122 -1
48 -4 101 -6 117 -15 89 1 416 24 497 13 43 13 68 0 68 -5 0 -10 -7 -10 -16 0
-8 -6 -22 -14 -30 -8 -8 -18 -34 -22 -59 -3 -25 -10 -48 -15 -51 -5 -3 -9 -18
-9 -33 0 -15 -7 -36 -15 -47 -8 -10 -15 -24 -15 -30 0 -15 -36 -91 -60 -129
-11 -16 -23 -37 -26 -45 -12 -27 -57 -70 -74 -70 -21 0 -39 54 -35 110 6 87
38 180 63 180 6 0 12 5 12 11 0 7 7 17 16 23 14 11 74 172 74 200 0 8 7 19 15
26 8 7 14 20 14 29 -1 13 -2 13 -5 1 -3 -8 -20 -26 -40 -39 -37 -26 -80 -81
-107 -141 -27 -57 -57 -151 -57 -177 0 -13 -5 -33 -11 -44 -5 -11 -14 -62 -18
-115 -4 -52 -11 -97 -14 -101 -8 -7 -35 14 -48 39 -17 31 -40 129 -33 139 3 6
1 15 -4 22 -15 20 -14 145 2 252 14 89 23 125 57 241 5 17 9 39 9 50 0 10 7
32 15 48 8 15 15 35 15 44 0 23 43 105 67 128 13 12 23 26 23 32 0 5 7 12 15
16 8 3 15 11 15 19 0 7 13 26 30 42 16 16 30 35 30 42 0 7 5 13 10 13 6 0 10
5 10 11 0 9 64 96 81 109 43 34 98 81 123 105 17 16 59 48 94 71 35 23 94 72
132 108 39 36 72 66 75 66 7 0 28 17 71 58 19 17 39 32 45 32 5 0 12 7 15 15
4 8 14 15 24 15 23 0 83 30 93 47 4 7 16 13 26 13 11 0 21 7 25 15 3 8 12 15
20 15 7 0 16 7 20 15 3 8 10 15 16 15 5 0 29 14 52 30 22 17 44 30 49 30 4 0
30 22 58 49 71 68 142 90 141 43 -1 -20 -34 -62 -49 -62 -6 0 -11 -5 -11 -12
0 -13 -128 -138 -141 -138 -5 0 -9 -5 -9 -11 0 -5 -25 -21 -54 -35 -30 -14
-57 -33 -60 -42 -3 -9 -17 -29 -30 -43 -13 -14 -27 -36 -31 -49 -4 -13 -14
-31 -22 -39 -8 -7 -12 -22 -10 -32 3 -11 -1 -20 -12 -22 -11 -3 -9 -5 7 -6 12
0 30 9 40 21 32 40 131 138 140 138 5 0 22 13 38 30 16 16 35 30 42 30 6 0 12
5 12 10 0 6 6 10 14 10 7 0 19 6 25 14 7 8 31 24 53 36 23 12 70 52 105 90 35
37 80 77 101 87 80 42 107 59 130 86 13 15 30 27 38 27 7 0 29 14 47 30 19 17
39 30 43 30 5 0 20 9 34 20 14 11 32 20 41 20 9 0 24 9 34 20 10 11 25 20 33
20 18 0 75 31 85 48 4 6 23 12 42 12 19 0 36 4 39 9 3 4 21 11 39 14 19 3 64
19 100 36 36 17 69 31 72 31 4 0 13 7 21 15 9 8 30 15 47 15 18 0 57 9 87 21
73 28 233 69 268 69 15 0 32 4 38 9 5 6 43 15 84 21 41 6 83 16 93 21 21 12
57 -5 57 -27 0 -8 -11 -19 -24 -24 -13 -5 -27 -14 -31 -19 -3 -6 -16 -11 -29
-11 -12 0 -27 -5 -33 -11 -7 -7 -29 -15 -49 -18 -40 -7 -60 -31 -25 -31 48 0
189 35 221 54 19 12 46 27 60 34 14 6 34 17 45 24 30 17 46 26 85 45 19 9 44
26 56 37 11 12 31 28 43 36 13 8 38 26 56 40 18 14 46 33 62 42 15 10 48 31
73 47 56 37 80 39 80 8 0 -22 -46 -67 -68 -67 -6 0 -41 -29 -78 -65 -69 -64
-69 -64 -38 -65 17 0 43 9 57 20 14 11 32 20 41 20 28 0 99 50 161 115 61 62
142 115 176 115 29 0 23 17 -8 24 -16 3 -102 8 -193 11 -138 4 -180 2 -255
-15z m1030 -1136 c79 -3 142 -11 162 -20 17 -8 56 -14 86 -14 36 0 61 -5 71
-15 8 -8 25 -15 38 -15 13 0 33 -7 44 -15 10 -8 31 -15 45 -15 15 0 32 -7 39
-15 7 -8 23 -15 35 -15 27 0 77 -25 110 -55 12 -11 43 -36 69 -55 81 -60 96
-76 96 -103 0 -14 5 -38 12 -52 9 -19 8 -59 -1 -168 -15 -174 -35 -252 -73
-290 -15 -15 -28 -30 -28 -33 0 -2 -8 -14 -18 -25 -11 -10 -25 -32 -33 -47
-20 -39 -60 -82 -76 -82 -7 0 -13 -5 -13 -10 0 -6 -10 -15 -22 -20 -13 -6 -36
-19 -53 -30 -16 -11 -37 -23 -45 -26 -8 -4 -31 -13 -52 -22 -20 -8 -42 -26
-49 -39 -12 -22 -43 -45 -81 -59 -10 -3 -18 -13 -18 -20 0 -8 -10 -14 -24 -14
-13 0 -29 -7 -36 -15 -7 -8 -20 -15 -30 -15 -10 0 -20 -7 -24 -15 -3 -8 -14
-15 -25 -15 -11 0 -21 -4 -23 -8 -7 -17 -77 -52 -104 -52 -16 -1 -40 -7 -54
-15 -14 -8 -35 -14 -47 -15 -13 0 -23 -5 -23 -10 0 -12 -15 -19 -170 -71 -63
-22 -124 -45 -135 -51 -11 -6 -77 -16 -146 -21 -150 -12 -198 -3 -256 49 -21
19 -42 33 -48 31 -5 -2 -8 -26 -6 -54 3 -57 1 -59 -72 -80 -118 -34 -620 -48
-851 -25 -265 28 -496 121 -528 214 -5 15 -14 28 -19 28 -13 0 -39 99 -39 151
0 26 -4 51 -10 54 -5 3 -10 44 -10 90 0 46 5 87 10 90 6 3 10 39 10 79 0 74
13 106 76 187 31 39 164 169 174 169 5 0 10 10 12 21 2 12 12 27 23 33 23 13
94 65 113 83 7 7 20 13 28 13 8 0 14 5 14 10 0 6 20 20 45 32 25 12 45 28 45
35 0 7 11 13 24 13 14 0 28 5 31 10 3 6 12 10 20 10 8 0 31 11 51 25 21 14 49
28 63 31 14 3 65 23 113 45 47 21 97 39 110 39 13 0 40 9 61 20 20 11 45 20
56 20 10 0 24 7 31 15 7 8 23 15 37 15 13 0 51 14 85 30 33 17 74 30 92 30 18
0 41 7 52 15 10 8 35 15 54 15 19 0 44 7 54 15 12 9 44 15 80 16 34 1 72 5 86
10 25 8 542 4 785 -7z m841 -1015 c17 -19 19 -39 19 -225 0 -214 -2 -224 -45
-224 -33 0 -43 18 -47 86 -3 38 -8 76 -13 84 -4 8 -6 63 -5 121 1 91 5 112 24
143 26 41 40 45 67 15z m-3413 -111 c3 -35 16 -101 28 -148 l22 -84 -33 -27
c-17 -15 -44 -29 -60 -33 -18 -3 -33 -15 -42 -33 -13 -27 -17 -28 -91 -31 -42
-2 -77 -1 -77 2 0 10 71 126 103 168 18 24 39 59 46 78 23 63 84 179 91 175 4
-2 10 -33 13 -67z m3077 -108 c0 -5 11 -10 24 -10 16 0 27 -8 34 -27 21 -52
25 -85 13 -93 -10 -5 -10 -17 -2 -46 6 -22 11 -58 11 -80 0 -47 -9 -54 -69
-54 -56 0 -73 28 -86 142 -2 14 -6 48 -9 75 -6 50 1 67 39 90 25 15 45 16 45
3z m-283 -230 c6 -36 9 -77 6 -92 -3 -15 -3 -34 0 -43 10 -24 37 -6 36 24 -1
40 8 121 14 127 3 3 14 3 24 0 13 -4 26 -26 37 -64 10 -31 21 -59 25 -62 48
-36 66 -111 31 -130 -21 -11 -30 -42 -50 -157 -6 -40 -15 -73 -19 -73 -12 0
-31 23 -31 38 0 32 -32 121 -46 126 -13 5 -14 -6 -8 -72 3 -42 7 -95 8 -117 1
-22 5 -50 10 -62 8 -24 40 -31 51 -13 10 16 74 40 105 40 48 0 60 -9 60 -48 0
-46 -31 -143 -47 -149 -7 -3 -13 -14 -13 -26 0 -11 -15 -34 -32 -52 -18 -18
-43 -44 -55 -59 -49 -57 -76 -5 -29 57 25 33 29 52 27 125 -2 62 -26 55 -48
-14 -13 -42 -26 -63 -53 -82 -19 -15 -43 -35 -54 -45 -16 -17 -20 -17 -33 -4
-12 11 -16 48 -20 148 -2 74 -11 160 -19 192 -16 61 -13 170 7 249 5 20 14 82
19 137 12 124 30 174 62 169 20 -3 25 -12 35 -68z m-2697 28 c0 -5 11 -21 25
-36 40 -43 59 -114 46 -167 -9 -36 -30 -62 -118 -149 -59 -58 -110 -106 -114
-106 -4 0 -13 -14 -21 -30 -8 -20 -25 -34 -48 -42 -35 -11 -86 -43 -105 -65
-15 -17 -180 -103 -199 -103 -23 0 -20 20 9 62 14 20 25 42 25 48 0 24 33 59
61 65 16 4 29 13 29 21 0 8 7 14 15 14 8 0 15 7 15 15 0 8 7 15 15 15 8 0 15
7 15 15 0 8 6 15 13 15 7 0 21 14 31 31 l18 31 -29 -16 c-16 -8 -35 -22 -42
-30 -8 -9 -22 -16 -32 -16 -10 0 -20 -4 -23 -9 -3 -4 -27 -11 -53 -15 -35 -4
-54 -14 -75 -36 -15 -17 -35 -30 -45 -30 -10 0 -30 -11 -45 -25 -15 -14 -31
-25 -35 -25 -5 0 -16 -9 -26 -20 -9 -11 -24 -20 -32 -20 -8 0 -15 -7 -15 -15
0 -8 -9 -15 -19 -15 -11 0 -33 -11 -49 -25 -28 -23 -72 -45 -93 -45 -11 0 21
34 42 43 35 17 91 64 101 85 5 10 71 58 90 65 10 3 20 18 24 32 3 14 10 25 15
25 5 0 9 9 9 21 0 18 -4 20 -32 14 -18 -4 -40 -13 -49 -21 -8 -8 -19 -14 -23
-14 -4 0 -14 -7 -22 -15 -9 -8 -28 -15 -43 -15 -16 0 -34 -7 -41 -15 -7 -8
-22 -15 -35 -15 -12 0 -25 -3 -29 -7 -4 -5 -35 -13 -69 -19 -34 -6 -86 -18
-114 -26 -29 -8 -54 -13 -57 -11 -11 12 22 55 47 60 15 3 27 9 27 14 0 14 39
49 54 49 7 0 19 7 26 15 7 8 21 15 31 15 10 0 25 10 33 21 10 15 31 24 66 30
30 5 66 19 85 33 18 14 48 27 67 28 29 3 33 0 36 -24 3 -22 7 -26 20 -19 34
16 118 39 169 46 29 4 55 11 59 16 3 5 17 9 32 9 15 0 37 6 48 14 11 8 37 18
59 22 60 11 207 168 237 254 8 25 13 28 24 19 8 -6 14 -16 14 -21z m2455 -73
c21 -22 25 -36 27 -88 2 -96 -3 -149 -18 -186 -8 -18 -14 -43 -14 -54 0 -52
-76 -79 -98 -34 -35 69 -32 144 7 191 11 13 11 27 1 76 -13 63 -9 90 14 90 7
0 16 7 20 15 8 22 32 18 61 -10z m852 -75 c-4 -33 -12 -50 -34 -67 -35 -28
-34 -28 -67 2 -38 35 -33 61 21 112 l48 44 19 -23 c14 -17 17 -33 13 -68z
m-3127 -153 c0 -16 -133 -157 -148 -157 -4 0 -22 -13 -40 -30 -18 -16 -37 -30
-43 -30 -5 0 -9 -4 -9 -10 0 -5 -10 -10 -22 -10 -13 0 -40 -19 -67 -49 -25
-27 -64 -59 -86 -71 -55 -29 -75 -41 -115 -70 -19 -14 -52 -35 -73 -45 -56
-29 -55 -35 7 -35 30 0 58 5 61 10 3 6 15 10 27 10 11 0 33 9 49 21 31 22 60
22 67 2 2 -7 -5 -16 -15 -20 -10 -3 -25 -12 -33 -19 -41 -35 -209 -61 -225
-35 -3 5 -34 13 -70 16 -69 8 -76 14 -47 43 20 19 103 62 121 62 6 0 11 3 11
8 0 9 58 42 75 42 7 0 18 7 25 15 7 8 23 15 35 15 12 0 28 7 35 15 7 8 22 15
34 15 12 0 33 11 48 24 30 28 96 66 116 66 7 0 15 7 18 15 4 8 12 15 20 15 17
0 55 53 79 110 10 25 25 52 32 61 7 8 13 22 13 30 0 8 11 26 25 41 l24 26 36
-32 c19 -18 35 -40 35 -49z m417 2 c14 -14 371 -38 560 -37 150 0 185 -6 221
-36 52 -43 92 -86 92 -98 0 -7 3 -22 6 -33 4 -15 -6 -32 -32 -59 l-36 -38 30
-21 c82 -58 129 -208 52 -167 -29 15 -25 -1 10 -40 17 -18 30 -37 30 -42 0 -4
5 -8 10 -8 12 0 50 -37 50 -49 0 -5 6 -12 13 -15 6 -3 26 -15 42 -26 17 -11
38 -23 48 -26 9 -4 17 -10 17 -14 0 -4 16 -15 35 -26 19 -10 35 -24 35 -31 0
-18 -78 -17 -114 2 -15 8 -37 15 -47 15 -11 0 -22 7 -25 15 -4 8 -11 15 -18
15 -6 0 -27 8 -46 18 -19 11 -51 22 -71 25 -52 8 -137 51 -184 92 -22 19 -43
35 -47 35 -5 0 -16 7 -25 15 -10 8 -37 31 -60 51 -29 24 -44 47 -49 70 -3 18
-17 45 -30 59 -26 28 -32 65 -11 65 6 0 30 -11 52 -25 22 -13 46 -25 54 -25 8
0 20 -8 27 -17 18 -23 33 -3 26 34 -5 24 -3 25 29 18 19 -4 39 -12 44 -18 6
-7 21 -21 33 -31 23 -20 23 -20 16 0 -10 26 -96 114 -111 114 -7 0 -13 5 -13
10 0 6 -5 10 -11 10 -5 0 -24 13 -42 30 -18 16 -37 30 -43 30 -6 0 -17 7 -24
15 -7 8 -23 15 -36 15 -15 0 -24 6 -24 15 0 8 -9 15 -20 15 -25 0 -25 -1 5
-35 15 -15 24 -32 22 -39 -6 -17 -42 -19 -57 -1 -7 8 -22 15 -34 15 -11 0 -34
7 -50 15 -35 18 -36 18 -36 0 0 -8 9 -15 20 -15 18 0 40 -26 40 -49 0 -15 -63
-14 -78 1 -15 15 -92 38 -149 45 -23 3 -47 11 -54 19 -6 8 -17 14 -25 14 -7 0
-17 6 -21 14 -6 11 -73 29 -73 20 0 -13 14 -34 24 -34 6 -1 22 -14 36 -30 14
-17 34 -30 47 -30 13 0 23 -6 23 -13 0 -7 9 -18 20 -25 20 -12 25 -37 14 -66
-9 -24 -26 -20 -75 17 -24 18 -57 39 -74 47 -37 18 -155 135 -155 152 1 30 38
58 77 58 21 0 49 7 63 14 31 18 63 19 77 5z m1484 -97 c14 -26 38 -53 54 -61
39 -19 115 -27 115 -12 0 6 11 11 25 11 18 0 25 -5 25 -19 0 -10 7 -32 15 -47
8 -16 15 -46 15 -67 0 -21 4 -46 9 -55 8 -15 25 -122 35 -222 2 -19 12 -55 21
-80 21 -52 15 -100 -13 -100 -10 0 -23 14 -31 33 -22 51 -85 146 -97 146 -19
1 -84 80 -103 124 -10 23 -33 72 -50 110 -30 61 -35 67 -63 67 -26 0 -30 -3
-25 -22 3 -13 11 -43 17 -68 6 -25 17 -59 25 -77 21 -45 20 -83 -3 -83 -29 0
-33 -11 -13 -39 49 -71 62 -131 27 -131 -8 0 -61 51 -117 113 -57 61 -113 122
-126 134 -13 12 -23 26 -23 32 0 5 -6 11 -12 13 -9 3 -15 42 -20 119 -3 63
-10 129 -13 147 -8 34 9 82 28 82 11 0 97 -83 97 -94 0 -3 10 -17 22 -31 17
-20 31 -25 66 -25 l45 0 -7 32 c-3 18 -10 34 -15 38 -11 6 -21 94 -12 107 23
36 53 14 102 -75z m-1901 -108 c0 -8 -15 -21 -33 -29 -19 -8 -47 -27 -64 -42
-16 -16 -47 -37 -67 -48 -20 -11 -49 -32 -64 -46 -73 -69 -132 -98 -132 -64 0
17 32 49 80 78 19 11 39 27 43 34 4 7 17 13 28 13 11 0 22 7 25 15 4 8 11 15
18 15 6 0 31 14 55 30 24 17 52 30 63 30 10 0 18 7 18 15 0 8 7 15 15 15 8 0
15 -7 15 -16z m1449 -80 c23 -19 41 -25 68 -23 54 3 63 1 63 -15 0 -8 -6 -16
-12 -19 -10 -3 -9 -18 6 -63 33 -104 38 -114 80 -146 65 -50 125 -117 152
-169 13 -27 24 -51 24 -54 0 -12 -79 -4 -90 10 -7 8 -21 15 -32 15 -11 0 -38
15 -61 33 -23 18 -53 38 -67 44 -14 6 -43 26 -66 44 -23 19 -60 48 -83 64 -47
34 -52 68 -11 73 14 2 29 7 33 12 11 10 -9 49 -37 73 -12 10 -31 27 -44 38
-19 16 -22 26 -17 52 14 64 44 73 94 31z m-2771 -43 c7 -4 34 -4 60 0 49 8
105 -7 99 -26 -4 -10 -27 -17 -132 -38 -33 -7 -80 -23 -105 -36 -25 -13 -62
-32 -82 -42 -20 -10 -47 -19 -60 -19 -18 0 -12 10 42 60 35 33 68 60 72 60 4
0 11 6 15 13 19 29 66 44 91 28z m260 -183 c-2 -16 -21 -32 -63 -55 -33 -17
-62 -30 -65 -28 -4 2 -35 -5 -71 -16 -88 -28 -172 -29 -231 -4 -69 29 -70 45
-2 44 30 -1 60 3 67 10 6 6 22 11 34 11 13 0 35 7 48 16 15 10 58 18 120 21
52 3 98 10 101 14 3 5 19 9 35 9 26 0 30 -3 27 -22z m970 -64 l3 -40 -53 -16
c-66 -20 -177 -42 -182 -37 -4 4 -9 55 -7 77 1 7 17 12 44 12 26 1 57 10 82
25 25 15 53 23 75 22 33 -2 35 -4 38 -43z m-1541 -106 c17 -14 217 -27 310
-21 61 4 87 2 98 -7 10 -9 37 -13 70 -11 55 2 70 -7 61 -37 -9 -28 -61 -45
-114 -38 -26 4 -100 10 -164 15 -65 4 -123 13 -130 18 -7 6 -26 13 -43 16
-148 29 -195 46 -195 72 0 14 87 9 107 -7z m1187 -5 c17 -44 -1 -62 -64 -63
-14 0 -34 -7 -44 -15 -30 -23 -135 -19 -165 5 -27 23 -22 45 14 62 14 6 25 15
25 20 0 4 51 8 114 7 92 -1 116 -4 120 -16z"/>
<path d="M4380 2589 c-96 -4 -188 -12 -203 -18 -16 -6 -49 -11 -75 -11 -26 -1
-65 -7 -87 -15 -22 -8 -51 -15 -64 -15 -14 0 -50 -6 -80 -14 -31 -8 -81 -19
-111 -25 -57 -12 -154 -54 -165 -71 -3 -6 -13 -10 -22 -10 -8 0 -32 -13 -53
-30 -21 -16 -43 -30 -49 -30 -6 0 -11 -4 -11 -10 0 -13 1 -13 57 11 26 11 84
30 128 40 44 11 88 24 97 29 35 19 104 40 134 40 17 0 53 7 80 15 27 8 76 15
109 15 33 0 107 7 165 16 65 9 168 15 270 14 146 -1 227 -6 415 -27 l50 -5
-19 21 c-11 12 -31 21 -46 21 -14 0 -35 7 -46 15 -10 8 -33 15 -50 15 -17 0
-47 6 -65 14 -45 18 -148 22 -359 15z"/>
<path d="M5054 2373 c4 -21 10 -79 12 -129 5 -84 4 -95 -20 -142 -30 -60 -30
-58 -12 -65 18 -7 71 41 81 73 4 14 11 30 16 36 13 16 22 117 15 166 -7 50
-46 98 -77 98 -19 0 -20 -4 -15 -37z"/>
<path d="M3070 2185 c-7 -8 -25 -15 -39 -15 -15 0 -36 -7 -47 -15 -10 -8 -26
-15 -35 -15 -9 0 -22 -7 -29 -15 -7 -8 -21 -15 -31 -15 -11 0 -19 -4 -19 -9 0
-6 -12 -16 -27 -23 -14 -7 -31 -22 -37 -33 -6 -10 -34 -43 -62 -72 -74 -77
-103 -139 -105 -221 -1 -58 3 -77 31 -132 18 -36 43 -75 56 -87 13 -12 24 -27
24 -33 0 -5 5 -10 11 -10 7 0 17 -7 23 -15 6 -8 27 -16 46 -17 30 -3 35 0 32
17 -3 21 -13 46 -39 102 -22 44 -21 188 1 212 9 10 16 23 16 30 0 23 145 229
163 230 8 1 47 38 47 46 0 13 36 45 51 45 17 0 29 19 29 46 0 19 -44 18 -60
-1z"/>
<path d="M4908 1933 c-21 -8 -38 -19 -38 -24 0 -5 -6 -9 -12 -9 -7 0 -36 -22
-65 -48 -74 -67 -109 -92 -126 -92 -9 0 -19 -5 -22 -11 -4 -5 -17 -15 -28 -20
-28 -12 -61 -32 -78 -45 -8 -6 -41 -17 -74 -24 -33 -8 -85 -26 -115 -41 -77
-40 -157 -69 -185 -69 -13 0 -25 -5 -27 -11 -2 -6 -33 -14 -68 -18 -36 -4 -72
-11 -80 -16 -28 -19 -489 -48 -635 -41 -55 3 -104 5 -110 5 -5 0 -57 -4 -114
-9 -98 -9 -141 -24 -141 -51 0 -15 40 -19 345 -29 l309 -11 29 -32 c15 -18 34
-45 42 -62 l14 -30 1 41 c0 26 9 54 23 75 l23 34 93 3 c65 2 98 7 108 17 9 9
35 15 66 15 30 0 60 7 71 15 11 8 31 15 45 15 14 0 53 14 86 30 33 16 67 30
75 30 8 0 24 7 34 15 11 8 26 15 34 15 7 0 20 7 28 15 9 8 25 15 37 15 12 0
34 11 49 25 14 13 38 27 52 31 14 3 26 10 26 14 0 4 20 11 44 14 24 4 50 14
56 21 7 8 17 15 22 15 5 0 42 25 82 55 40 30 77 55 82 55 5 0 24 14 42 30 18
17 36 30 38 30 3 0 21 14 40 32 24 23 30 34 21 40 -19 12 -58 9 -99 -9z"/>
<path d="M4122 3829 c-27 -10 -84 -52 -124 -91 -16 -16 -32 -28 -36 -28 -4 0
-29 -21 -56 -45 -27 -25 -53 -45 -58 -45 -18 0 -67 -66 -68 -91 l0 -27 43 15
c23 8 62 34 87 58 25 23 60 50 78 59 17 9 32 20 32 25 0 5 15 18 34 29 32 19
101 122 94 141 -2 5 -13 5 -26 0z"/>
<path d="M4314 3587 c-16 -18 -38 -50 -49 -72 -11 -22 -34 -53 -52 -70 -32
-31 -103 -128 -103 -142 0 -5 -14 -37 -31 -73 -17 -36 -37 -78 -44 -95 -6 -16
-22 -51 -33 -78 -12 -26 -22 -50 -22 -54 0 -10 142 5 154 17 5 5 18 10 28 10
22 0 234 210 243 242 11 37 35 87 45 93 6 3 10 26 10 51 0 25 7 61 15 81 22
52 19 57 -14 24 -15 -16 -37 -52 -47 -81 -10 -28 -30 -64 -44 -80 -14 -15 -36
-41 -50 -57 -14 -15 -35 -50 -47 -76 -17 -35 -28 -48 -40 -45 -13 3 -17 11
-15 28 2 14 6 50 9 80 3 30 10 62 17 70 19 24 35 62 44 105 5 22 23 62 40 89
18 28 32 54 32 58 0 17 -19 7 -46 -25z"/>
<path d="M3566 3536 c-10 -6 -48 -39 -84 -74 -37 -34 -85 -75 -107 -90 -22
-15 -43 -31 -47 -37 -4 -5 -45 -49 -92 -98 -84 -85 -99 -107 -73 -107 34 1
197 132 226 182 12 21 25 38 29 38 12 0 72 58 72 69 0 5 23 35 51 66 52 56 60
72 25 51z"/>
<path d="M3695 3500 c-11 -16 -23 -30 -27 -30 -3 0 -26 -19 -50 -43 -24 -24
-61 -55 -83 -69 -22 -14 -49 -35 -59 -47 -11 -11 -25 -21 -33 -21 -7 0 -13 -4
-13 -8 0 -8 -8 -18 -63 -82 -12 -14 -31 -43 -42 -65 -11 -22 -27 -49 -36 -60
-22 -26 -69 -111 -69 -124 0 -16 36 -13 50 4 7 8 19 15 26 15 8 0 14 5 14 11
0 13 59 90 77 102 7 4 13 14 13 22 0 7 20 35 45 62 25 26 45 54 45 62 0 24 41
87 73 112 65 50 167 160 167 179 0 19 -15 10 -35 -20z"/>
<path d="M2860 3405 c-7 -8 -19 -15 -27 -15 -7 0 -24 -6 -36 -14 -12 -8 -44
-18 -72 -22 -27 -4 -59 -13 -70 -20 -11 -8 -29 -14 -41 -14 -13 0 -43 -15 -67
-34 -25 -19 -72 -47 -104 -61 -56 -26 -116 -55 -178 -87 -16 -9 -52 -26 -80
-38 -27 -12 -58 -25 -67 -31 -10 -5 -24 -9 -31 -9 -7 0 -27 -13 -45 -30 -18
-16 -37 -30 -43 -30 -5 0 -9 -4 -9 -9 0 -5 -16 -19 -35 -31 -46 -28 -46 -50
-1 -50 19 0 38 5 41 10 8 13 89 50 108 50 8 0 20 7 27 15 7 8 17 15 24 15 6 0
54 21 106 46 52 25 115 55 140 67 97 44 109 51 141 80 32 27 94 72 125 90 8 4
22 12 32 17 9 6 24 13 32 16 8 3 22 10 30 15 19 12 26 14 80 29 25 6 52 16 60
21 8 5 25 13 38 19 33 14 27 20 -22 20 -26 0 -48 -6 -56 -15z"/>
<path d="M2594 3015 c-4 -8 -11 -15 -17 -15 -6 0 -17 -7 -26 -15 -29 -27 -181
-135 -191 -135 -5 0 -13 -6 -17 -13 -8 -13 -99 -77 -110 -77 -3 0 -22 -13 -43
-30 -21 -16 -40 -30 -43 -30 -6 0 -57 -43 -102 -85 -18 -16 -54 -48 -80 -70
-90 -75 -164 -159 -152 -172 3 -3 28 -2 56 2 39 5 58 15 94 48 24 23 47 50 50
60 4 10 21 24 39 32 18 7 51 32 73 54 21 23 45 41 52 41 7 0 13 3 13 8 0 4 19
18 41 32 23 14 47 37 55 53 8 15 20 27 27 27 7 0 24 13 37 30 14 16 31 29 38
30 6 0 12 5 12 10 0 6 5 10 11 10 6 0 32 23 58 50 26 28 52 50 59 50 7 0 12 8
12 17 0 9 21 36 46 60 31 28 41 43 30 43 -9 0 -19 -7 -22 -15z"/>
<path d="M2760 3009 c-14 -11 -37 -32 -52 -45 -15 -13 -32 -24 -37 -24 -5 0
-11 -7 -15 -15 -3 -8 -11 -15 -18 -15 -7 0 -26 -14 -42 -30 -16 -17 -33 -30
-37 -30 -4 0 -11 -9 -14 -21 -4 -11 -21 -27 -38 -35 -40 -18 -62 -31 -108 -66
-20 -16 -41 -28 -47 -28 -5 0 -12 -7 -16 -15 -3 -8 -12 -15 -21 -15 -8 0 -15
-4 -15 -8 0 -5 -19 -22 -42 -39 -24 -17 -54 -41 -68 -53 -14 -12 -44 -35 -66
-52 -48 -34 -80 -75 -90 -112 -5 -20 -2 -26 9 -26 20 0 87 39 87 51 0 5 7 9
15 9 8 0 15 5 15 10 0 6 7 10 15 10 8 0 15 5 15 10 0 6 5 10 10 10 6 0 19 9
30 20 11 11 27 20 35 20 8 0 15 6 15 13 1 14 93 107 108 107 5 0 12 7 16 15 3
8 10 15 16 15 14 0 80 66 80 80 0 5 5 10 10 10 6 0 18 8 28 18 10 9 34 29 53
44 82 66 105 86 156 135 49 48 65 74 46 73 -5 -1 -19 -10 -33 -21z"/>
<path d="M2885 2861 c-3 -6 -15 -11 -26 -11 -10 0 -19 -4 -19 -10 0 -5 -6 -10
-14 -10 -8 0 -16 -6 -19 -14 -4 -9 -28 -17 -61 -21 -32 -4 -57 -13 -60 -21 -3
-8 -16 -14 -28 -14 -24 0 -67 -37 -158 -139 -30 -33 -61 -61 -68 -61 -8 0 -25
-9 -39 -20 -14 -11 -32 -20 -39 -20 -8 0 -14 -4 -14 -10 0 -5 -7 -10 -15 -10
-8 0 -24 -9 -35 -20 -11 -11 -24 -20 -29 -20 -5 0 -18 -11 -29 -25 -11 -14
-25 -25 -31 -25 -6 0 -11 -6 -11 -14 0 -8 -4 -16 -8 -18 -11 -4 -72 -94 -72
-105 0 -5 -8 -18 -18 -29 -30 -33 -80 -142 -70 -152 13 -13 66 13 100 49 15
16 32 29 37 29 6 0 11 4 11 9 0 5 18 29 40 52 22 24 40 47 40 51 0 4 7 8 15 8
9 0 15 9 15 21 0 12 14 41 30 66 17 24 30 47 30 51 0 9 59 62 70 62 25 0 113
64 180 129 79 78 99 94 138 111 12 5 22 14 22 20 0 5 7 10 15 10 8 0 15 5 15
11 0 5 17 17 37 26 37 15 89 61 80 70 -3 2 -8 0 -12 -6z"/>
<path d="M1268 2793 c-10 -2 -18 -11 -18 -19 0 -8 -7 -14 -15 -14 -8 0 -15 -5
-15 -10 0 -6 -8 -14 -17 -17 -21 -8 -115 -102 -158 -157 -16 -21 -53 -54 -82
-72 -47 -30 -80 -61 -167 -153 -16 -17 -33 -31 -38 -31 -4 0 -8 -4 -8 -10 0
-5 -16 -25 -35 -44 -22 -22 -33 -41 -29 -51 7 -16 34 -21 34 -5 0 5 18 14 40
20 28 7 57 29 100 73 33 34 63 65 68 69 98 95 172 170 172 177 0 4 19 28 43
52 23 24 49 57 57 73 8 15 29 43 47 63 18 19 33 38 33 43 0 5 6 11 13 13 15 7
-2 6 -25 0z"/>
<path d="M1710 2775 c-7 -8 -18 -15 -24 -15 -7 0 -23 -13 -36 -30 -14 -16 -31
-29 -37 -30 -7 0 -13 -8 -13 -18 0 -10 -7 -27 -15 -38 -8 -10 -15 -27 -15 -36
0 -10 -4 -18 -9 -18 -5 0 -21 -20 -35 -45 -15 -25 -31 -45 -36 -45 -11 0 -70
-59 -70 -71 0 -11 -37 -49 -47 -49 -9 0 -73 -98 -73 -109 0 -4 -11 -14 -25
-21 -13 -7 -35 -28 -47 -47 -13 -18 -26 -33 -30 -33 -5 0 -8 -7 -8 -15 0 -8
-4 -15 -10 -15 -5 0 -10 -7 -10 -15 0 -8 -9 -24 -20 -35 -11 -11 -20 -24 -20
-28 0 -5 -9 -17 -19 -26 -11 -10 -22 -28 -25 -41 -3 -13 -21 -34 -39 -46 -37
-27 -167 -155 -167 -167 0 -4 -11 -19 -23 -32 -13 -14 -27 -37 -30 -50 -3 -14
-15 -35 -26 -46 -21 -23 -52 -88 -69 -144 -22 -75 -64 -380 -63 -464 0 -31 19
-43 34 -22 16 23 56 147 72 223 4 18 11 33 16 33 5 0 9 9 9 20 0 26 42 154 52
158 4 2 8 12 8 23 0 11 4 27 9 37 6 9 22 43 36 76 15 32 40 71 56 87 16 15 29
33 29 39 0 5 4 10 9 10 5 0 12 11 15 25 4 14 11 25 16 25 6 0 10 9 10 19 0 11
6 26 13 33 8 7 17 25 20 39 4 14 51 71 104 126 111 113 153 162 153 178 0 6
12 26 28 43 15 17 43 50 62 73 19 23 41 48 48 55 6 7 12 15 12 19 0 3 9 15 20
27 11 12 20 29 20 37 0 9 38 53 85 99 47 45 85 87 85 93 0 5 12 21 26 34 35
32 86 114 79 126 -10 15 -71 10 -85 -6z"/>
<path d="M1813 2592 c-44 -43 -106 -89 -130 -96 -13 -4 -23 -12 -23 -17 0 -5
-11 -14 -25 -19 -14 -5 -28 -18 -32 -27 -7 -21 -101 -113 -114 -113 -5 0 -9
-5 -9 -10 0 -12 -63 -80 -74 -80 -9 0 -45 -42 -46 -52 0 -15 77 -8 90 7 7 8
19 15 26 15 8 0 23 8 33 18 10 9 35 30 55 47 20 16 36 35 36 42 0 7 7 13 15
13 8 0 15 7 15 15 0 8 4 15 10 15 14 0 73 62 100 104 12 20 33 44 46 53 13 8
24 23 24 33 0 10 6 23 14 29 12 10 29 51 21 51 -2 0 -16 -12 -32 -28z"/>
<path d="M1148 2440 c-16 -16 -34 -30 -39 -30 -5 0 -9 -5 -9 -10 0 -12 -41
-73 -52 -78 -5 -2 -8 -10 -8 -18 0 -8 -7 -14 -15 -14 -8 0 -15 -6 -15 -13 0
-7 -15 -27 -32 -43 -18 -16 -44 -45 -58 -64 -14 -19 -33 -42 -42 -51 -30 -32
-46 -63 -53 -109 -6 -36 -17 -54 -62 -97 -60 -57 -67 -81 -18 -59 17 8 37 17
45 20 27 12 63 34 69 43 3 5 25 23 49 42 23 18 42 39 42 47 0 8 6 14 13 14 7
0 19 8 28 18 19 22 59 104 59 120 0 7 5 12 10 12 6 0 10 10 10 21 0 22 37 91
52 97 4 2 8 9 8 16 0 7 11 26 25 42 78 90 72 173 -7 94z"/>
<path d="M645 2309 c-5 -4 -20 -17 -32 -28 -13 -12 -25 -21 -28 -21 -9 0 -45
-40 -45 -50 0 -5 -7 -10 -15 -10 -8 0 -15 -6 -15 -14 0 -8 -7 -16 -15 -20 -8
-3 -15 -14 -15 -24 0 -11 -7 -25 -15 -32 -8 -7 -15 -23 -15 -36 0 -13 -4 -24
-9 -24 -5 0 -12 -13 -16 -30 -4 -16 -10 -32 -15 -35 -5 -3 -19 -27 -30 -53
-12 -26 -29 -61 -36 -77 -28 -58 -44 -141 -44 -222 0 -66 3 -83 15 -83 9 0 16
14 20 38 3 20 16 60 30 87 13 28 26 65 30 82 4 18 11 35 16 38 5 4 9 15 9 26
0 10 4 19 8 19 5 0 15 19 22 42 11 40 66 129 82 136 4 2 10 20 14 39 4 20 13
48 20 62 8 14 14 32 14 39 0 6 5 12 10 12 6 0 10 5 10 10 0 6 13 38 30 72 30
64 32 71 15 57z"/>
<path d="M950 2312 c0 -5 -24 -26 -54 -48 -35 -25 -62 -55 -75 -81 -11 -24
-25 -43 -31 -43 -5 0 -10 -6 -10 -13 0 -7 -9 -18 -20 -25 -11 -7 -20 -21 -20
-32 0 -11 -4 -20 -9 -20 -5 0 -12 -12 -15 -26 -4 -14 -20 -40 -36 -58 -28 -29
-28 -31 -10 -34 24 -4 92 35 118 68 11 14 28 51 38 83 10 31 21 57 25 57 4 0
10 11 13 25 4 14 15 35 26 48 10 12 30 36 44 52 23 27 34 55 21 55 -3 0 -5 -4
-5 -8z"/>
<path d="M1964 2243 c-29 -46 -78 -103 -89 -103 -6 0 -24 -13 -56 -42 -10 -10
-24 -18 -29 -18 -11 0 -24 -10 -61 -42 -10 -10 -23 -18 -29 -18 -5 0 -10 -7
-10 -15 0 -9 -13 -24 -30 -33 -16 -9 -30 -20 -30 -24 0 -5 -7 -8 -15 -8 -8 0
-15 -4 -15 -9 0 -5 -6 -16 -13 -23 -21 -22 -128 -168 -134 -185 -3 -8 -30 -39
-59 -67 -30 -29 -54 -57 -54 -63 0 -6 -7 -13 -15 -17 -24 -9 -17 -26 11 -26
29 0 84 28 98 49 14 23 66 71 76 71 15 0 70 58 70 75 0 8 3 15 8 15 4 0 18 17
32 38 14 20 36 49 50 63 14 15 39 43 57 63 17 20 36 36 42 36 6 0 11 5 11 10
0 6 4 10 10 10 5 0 25 16 44 35 20 19 38 35 41 35 8 0 45 39 45 48 0 5 9 17
20 27 11 10 20 24 20 32 0 7 4 13 8 13 7 0 42 94 42 113 0 19 -19 2 -46 -40z"/>
<path d="M1485 2079 c-16 -16 -34 -29 -40 -30 -10 0 -30 -22 -81 -86 -20 -26
-27 -48 -31 -105 -3 -40 -9 -77 -14 -83 -5 -5 -9 -19 -9 -31 0 -13 -7 -29 -15
-38 -8 -8 -15 -18 -15 -23 0 -5 -8 -16 -17 -25 -50 -47 -57 -78 -19 -78 15 0
41 17 69 45 26 25 50 45 56 45 11 0 74 106 77 130 5 38 47 198 60 227 7 17 14
37 14 45 0 8 5 19 12 26 9 9 9 12 -2 11 -8 -1 -28 -14 -45 -30z"/>
</g>
</svg>
